<?xml version="1.0" encoding="UTF-8" standalone="no"?> <svg xmlns="http://www.w3.org/2000/svg" xmlns:xlink="http://www.w3.org/1999/xlink" viewBox="0 0 64 64"><defs><style>.cls-1{fill:url(#linear-gradient);}</style><linearGradient id="linear-gradient" x1="3.25" y1="32" x2="60.75" y2="32" gradientUnits="userSpaceOnUse"><stop offset="0" stop-color="#5bb4f6"/><stop offset="0.61" stop-color="#2191e5"/><stop offset="1" stop-color="#007edb"/></linearGradient></defs><g id="Layer_76" data-name="Layer 76"><path class="cls-1" d="M32,3.25h0A28.75,28.75,0,0,0,3.25,32h0A28.75,28.75,0,0,0,32,60.75h0A28.75,28.75,0,0,0,60.75,32h0A28.75,28.75,0,0,0,32,3.25Zm17.5,28a.75.75,0,0,1,0,1.5H42.26v4.84H49.5a.75.75,0,0,1,0,1.5H42.26v.44a2.73,2.73,0,0,1-2.73,2.73h-.44V49a.75.75,0,0,1-1.5,0V42.26H32.75V49a.75.75,0,0,1-1.5,0V42.26H26.41V49a.75.75,0,0,1-1.5,0V42.26h-.44a2.73,2.73,0,0,1-2.73-2.73v-.44H14.5a.75.75,0,0,1,0-1.5h7.24V32.75H14.5a.75.75,0,0,1,0-1.5h7.24V26.41H14.5a.75.75,0,1,1,0-1.5h7.24v-.44a2.73,2.73,0,0,1,2.73-2.73h.44V15a.75.75,0,1,1,1.5,0v6.71h4.84V15a.75.75,0,0,1,1.5,0v6.71h4.84V15a.75.75,0,0,1,1.5,0v6.71h.44a2.73,2.73,0,0,1,2.73,2.73v.44H49.5a.75.75,0,0,1,0,1.5H42.26v4.84Z"/></g></svg>