<?xml version="1.0" encoding="UTF-8" standalone="no"?> <svg xmlns="http://www.w3.org/2000/svg" width="512" height="512" viewBox="0 0 512 512">
  <g id="_17_-_Books" data-name="17 - Books" transform="translate(0)">
    <g id="Layer_x0020_1">
      <path id="Path_96" data-name="Path 96" d="M262,389.172c29.785-17.943,60.09-30.13,91.059-34.916,31.7-4.9,63.982-2.033,96.969,10.349V116.253h0V98.773q-54.339-9.788-101.1-1.128A223.891,223.891,0,0,0,262,133.661V389.172Zm92.887-23.1c-26.1,4.033-51.835,13.7-77.289,27.9H481.665V157.013h0v-34.76H462.028V373.361a6,6,0,0,1-8.336,5.6l.009-.021c-33.728-14.252-66.612-17.843-98.814-12.867ZM462.027,93.8v16.452h25.637a6,6,0,0,1,6,6v34.76H506a6,6,0,0,1,6,6V424.4a6,6,0,0,1-6,6H6a6,6,0,0,1-6-6V157.012a6,6,0,0,1,6-6H18.335v-34.76a6,6,0,0,1,6-6H49.972V93.8a6,6,0,0,1,5.222-5.949q59.078-11.411,110.035-1.974A235.638,235.638,0,0,1,256,123.256a235.64,235.64,0,0,1,90.77-37.379q50.969-9.4,110.035,1.974a6,6,0,0,1,5.222,5.949ZM500,163.012h-6.335V399.965a6,6,0,0,1-6,6H24.336a6,6,0,0,1-6-6V163.012H12V418.4H500V163.012ZM30.336,393.965H234.4c-25.454-14.193-51.193-23.864-77.289-27.9-32.2-4.976-65.086-1.385-98.814,12.867l.009.021a6,6,0,0,1-8.336-5.6V122.252H30.336V393.965ZM250,389.171V133.66a223.909,223.909,0,0,0-86.927-36.017q-46.772-8.628-101.1,1.128V364.6c32.987-12.382,65.269-15.248,96.969-10.349,30.969,4.786,61.275,16.973,91.059,34.916Z" fill="#0CE1F0"/>
      <path id="Path_97" data-name="Path 97" d="M82.648,127.466A5.974,5.974,0,0,0,86.4,138.809a151,151,0,0,1,69.6-6.451c23.337,3.281,46.725,11.883,70.148,25.338a5.973,5.973,0,0,0,5.953-10.358c-24.777-14.232-49.6-23.343-74.459-26.838a162.7,162.7,0,0,0-75,6.966Z" fill="#0CE1F0"/>
      <path id="Path_98" data-name="Path 98" d="M82.648,169.771A5.974,5.974,0,1,0,86.4,181.114a151,151,0,0,1,69.6-6.451c23.337,3.281,46.725,11.883,70.148,25.338a5.973,5.973,0,0,0,5.953-10.358c-24.777-14.232-49.6-23.343-74.459-26.838a162.7,162.7,0,0,0-75,6.966Z" fill="#0CE1F0"/>
      <path id="Path_99" data-name="Path 99" d="M82.648,212.076A5.974,5.974,0,0,0,86.4,223.419a151,151,0,0,1,69.6-6.451c23.337,3.281,46.725,11.883,70.148,25.338a5.973,5.973,0,1,0,5.953-10.358c-24.777-14.232-49.6-23.343-74.459-26.838a162.7,162.7,0,0,0-75,6.966Z" fill="#0CE1F0"/>
      <path id="Path_100" data-name="Path 100" d="M82.648,254.381A5.974,5.974,0,0,0,86.4,265.724a151,151,0,0,1,69.6-6.451c23.337,3.281,46.725,11.883,70.148,25.338a5.973,5.973,0,0,0,5.953-10.358c-24.777-14.232-49.6-23.343-74.459-26.838a162.7,162.7,0,0,0-75,6.966Z" fill="#0CE1F0"/>
      <path id="Path_101" data-name="Path 101" d="M82.648,296.684A5.974,5.974,0,0,0,86.4,308.027a151.01,151.01,0,0,1,69.6-6.45c23.337,3.281,46.723,11.883,70.148,25.337a5.973,5.973,0,0,0,5.953-10.358c-24.777-14.231-49.6-23.342-74.459-26.837a162.711,162.711,0,0,0-75,6.965Z" fill="#0CE1F0"/>
      <path id="Path_102" data-name="Path 102" d="M82.648,338.989A5.974,5.974,0,0,0,86.4,350.332a151.01,151.01,0,0,1,69.6-6.45c23.337,3.281,46.723,11.883,70.148,25.337a5.973,5.973,0,0,0,5.953-10.358c-24.777-14.231-49.6-23.342-74.459-26.837a162.711,162.711,0,0,0-75,6.965Z" fill="#0CE1F0"/>
      <path id="Path_103" data-name="Path 103" d="M421.324,138.809a5.974,5.974,0,1,0,3.751-11.343,162.7,162.7,0,0,0-75-6.966c-24.861,3.495-49.682,12.606-74.459,26.838a5.973,5.973,0,1,0,5.953,10.358c23.424-13.455,46.811-22.057,70.148-25.338a151,151,0,0,1,69.6,6.451Z" fill="#0CE1F0"/>
      <path id="Path_104" data-name="Path 104" d="M421.324,181.114a5.974,5.974,0,1,0,3.751-11.343,162.694,162.694,0,0,0-75-6.966c-24.861,3.495-49.682,12.606-74.459,26.838A5.973,5.973,0,1,0,281.571,200c23.424-13.455,46.811-22.057,70.148-25.338a151,151,0,0,1,69.6,6.451Z" fill="#0CE1F0"/>
      <path id="Path_105" data-name="Path 105" d="M421.324,223.419a5.974,5.974,0,1,0,3.751-11.343,162.694,162.694,0,0,0-75-6.966c-24.861,3.495-49.682,12.606-74.459,26.838a5.973,5.973,0,1,0,5.953,10.358c23.424-13.455,46.811-22.057,70.148-25.338a151,151,0,0,1,69.6,6.451Z" fill="#0CE1F0"/>
      <path id="Path_106" data-name="Path 106" d="M421.324,265.724a5.974,5.974,0,1,0,3.751-11.343,162.694,162.694,0,0,0-75-6.966c-24.861,3.495-49.682,12.606-74.459,26.838a5.973,5.973,0,1,0,5.953,10.358c23.424-13.455,46.811-22.057,70.148-25.338a151,151,0,0,1,69.6,6.451Z" fill="#0CE1F0"/>
      <path id="Path_107" data-name="Path 107" d="M421.324,308.028a5.974,5.974,0,1,0,3.751-11.343,162.71,162.71,0,0,0-75-6.965c-24.861,3.495-49.682,12.606-74.459,26.837a5.973,5.973,0,1,0,5.953,10.358c23.425-13.454,46.811-22.056,70.148-25.337a151.01,151.01,0,0,1,69.6,6.45Z" fill="#0CE1F0"/>
      <path id="Path_108" data-name="Path 108" d="M421.324,350.333a5.974,5.974,0,1,0,3.751-11.343,162.71,162.71,0,0,0-75-6.965c-24.861,3.495-49.682,12.606-74.459,26.837a5.973,5.973,0,1,0,5.953,10.358c23.425-13.454,46.811-22.056,70.148-25.337a151.01,151.01,0,0,1,69.6,6.45Z" fill="#0CE1F0"/>
    </g>
    <rect id="Rectangle_9" data-name="Rectangle 9" width="512" height="512" fill="none"/>
  </g>
</svg>
